<svg xmlns="http://www.w3.org/2000/svg" xmlns:xlink="http://www.w3.org/1999/xlink" version="1.1" x="0px" y="0px" viewBox="0 0 32 32" enable-background="new 0 0 32 32" xml:space="preserve"><g display="none"><rect x="-195.312" y="-18.646" display="inline" fill="#000000" width="473.333" height="236"></rect></g><g display="none"><g display="inline"><rect x="0" y="0" fill="#000000" width="32" height="32"></rect></g><g display="inline"><path fill="#000000" d="M16,26.086c-5.551,0-10.066-4.516-10.066-10.065c0-5.55,4.516-10.066,10.066-10.066    c5.55,0,10.065,4.516,10.065,10.066C26.066,21.571,21.55,26.086,16,26.086z M16,7.955c-4.448,0-8.066,3.618-8.066,8.066    c0,4.447,3.618,8.065,8.066,8.065c4.447,0,8.065-3.618,8.065-8.065C24.066,11.573,20.448,7.955,16,7.955z"></path></g></g><g><g><circle cx="16" cy="16.021" r="8.066"></circle><path d="M32,0H0v32h32V0z M16,26.086c-5.551,0-10.066-4.516-10.066-10.065c0-5.55,4.516-10.066,10.066-10.066    c5.55,0,10.065,4.516,10.065,10.066C26.066,21.571,21.55,26.086,16,26.086z"></path></g></g><g display="none"><g display="inline"><path fill="#000000" d="M31,1v30H1V1H31 M32,0H0v32h32V0L32,0z"></path></g><g display="inline"><path fill="#000000" d="M16,7.955c4.447,0,8.066,3.618,8.066,8.066S20.447,24.087,16,24.087s-8.066-3.618-8.066-8.066    S11.553,7.955,16,7.955 M16,6.955c-5.007,0-9.066,4.059-9.066,9.066s4.059,9.066,9.066,9.066c5.007,0,9.066-4.059,9.066-9.066    S21.007,6.955,16,6.955L16,6.955z"></path></g></g><g display="none"><g display="inline"><rect x="0.5" y="0.5" fill="#000000" width="31" height="31"></rect><g><path d="M31,1v30H1V1H31 M32,0H0v32h32V0L32,0z"></path></g></g><g display="inline"><circle fill="#000000" cx="16" cy="16.021" r="8.566"></circle><path fill="#000000" d="M16,7.955c4.447,0,8.066,3.618,8.066,8.066S20.447,24.087,16,24.087s-8.066-3.618-8.066-8.066    S11.553,7.955,16,7.955 M16,6.955c-5.007,0-9.066,4.059-9.066,9.066s4.059,9.066,9.066,9.066c5.007,0,9.066-4.059,9.066-9.066    S21.007,6.955,16,6.955L16,6.955z"></path></g></g></svg>